<svg width="24" height="24" viewBox="0 0 24 24" fill="none" xmlns="http://www.w3.org/2000/svg">
<path fill-rule="evenodd" clip-rule="evenodd" d="M6.46267 6.29289C6.08536 6.68342 6.08536 7.31658 6.46267 7.70711L16.1244 17.7071C16.5018 18.0976 17.1135 18.0976 17.4908 17.7071C17.8681 17.3166 17.8681 16.6834 17.4908 16.2929L7.82905 6.29289C7.45174 5.90237 6.83999 5.90237 6.46267 6.29289Z" fill="#8A8A8A"/>
<path fill-rule="evenodd" clip-rule="evenodd" d="M17.4908 6.29289C17.8681 6.68342 17.8681 7.31658 17.4908 7.70711L7.82905 17.7071C7.45174 18.0976 6.83999 18.0976 6.46267 17.7071C6.08536 17.3166 6.08536 16.6834 6.46267 16.2929L16.1244 6.29289C16.5018 5.90237 17.1135 5.90237 17.4908 6.29289Z" fill="#8A8A8A"/>
</svg>
